# xmcd
#
# Track frame offsets:
#	150
#	15540
#	30645
#	46856
#	64219
#	78794
#	93224
#	107694
#	121224
#
# Disc length: 1801 seconds
#
# Revision: 0
# Processed by: cddbd v1.5.2PL0 Copyright (c) Steve Scherf et al.
# Submitted via: EZCDAudioConverter 8.1.0.1
#
DISCID=60070709
DTITLE=Tarot and Kodokubeats - Tod Liebe Echos EP
DYEAR=2018
DGENRE=
TTITLE0=Elternhaus
TTITLE1=Unter einer Eiche feat. K-Fik
TTITLE2=Schwarze Magie feat. Pems
TTITLE3=Galgenberg feat. Sucht
TTITLE4=Dämonen
TTITLE5=Muttersprache feat. Raptor
TTITLE6=D-Moll feat. Harma
TTITLE7=Monster feat. Acaz
TTITLE8=Leichentuch
EXTD=
EXTT0=
EXTT1=
EXTT2=
EXTT3=
EXTT4=
EXTT5=
EXTT6=
EXTT7=
EXTT8=
PLAYORDER=
